<svg width="20" height="20" viewBox="0 0 20 20" fill="none" xmlns="http://www.w3.org/2000/svg">
<rect width="20" height="20" rx="10" fill="#C3C3C3"/>
<g clip-path="url(#clip0_965_20570)">
<path d="M15.1878 5.03216L4.56045 9.13026C3.83517 9.42157 3.83937 9.82617 4.42738 10.0066L7.15585 10.8577L13.4687 6.87472C13.7672 6.6931 14.04 6.7908 13.8158 6.9898L8.70111 11.6058H8.69991L8.70111 11.6064L8.5129 14.4188C8.78862 14.4188 8.9103 14.2923 9.06494 14.1431L10.3902 12.8543L13.1469 14.8905C13.6552 15.1704 14.0202 15.0266 14.1467 14.42L15.9563 5.8917C16.1415 5.14905 15.6727 4.81278 15.1878 5.03216Z" fill="#1E1E1E"/>
</g>
<defs>
<clipPath id="clip0_965_20570">
<rect width="12" height="12" fill="white" transform="translate(4 4)"/>
</clipPath>
</defs>
</svg>
