<svg width="20" height="20" viewBox="0 0 20 20" fill="none" xmlns="http://www.w3.org/2000/svg">
<path d="M14.1667 9.16667H16.6667C17.5917 9.16667 18.3333 8.41667 18.3333 7.5V4.16667C18.3333 3.24167 17.5833 2.5 16.6667 2.5H14.1667C13.2417 2.5 12.5 3.25 12.5 4.16667V5H7.50834V4.16667C7.50834 3.24167 6.75834 2.5 5.84167 2.5H3.33334C2.41667 2.5 1.66667 3.25 1.66667 4.16667V7.5C1.66667 8.425 2.41667 9.16667 3.33334 9.16667H5.83334C6.75834 9.16667 7.50001 8.41667 7.50001 7.5V6.66667H9.16667V12.5083C9.16667 13.8833 10.2833 15 11.6583 15H12.5V15.8333C12.5 16.7583 13.25 17.5 14.1667 17.5H16.6667C17.5917 17.5 18.3333 16.75 18.3333 15.8333V12.5C18.3333 11.575 17.5833 10.8333 16.6667 10.8333H14.1667C13.2417 10.8333 12.5 11.5833 12.5 12.5V13.3333H11.6583C11.2083 13.3333 10.8333 12.9583 10.8333 12.5083V6.66667H12.5V7.5C12.5 8.41667 13.25 9.16667 14.1667 9.16667Z" fill="#464646"/>
</svg>
