<svg width="200" height="36" viewBox="0 0 200 36" fill="none" xmlns="http://www.w3.org/2000/svg">
<path d="M41.4631 25.5347V10.6123H44.9889V17.3074C44.9889 17.3903 45.0558 17.4567 45.1394 17.4567H45.1579C45.2397 17.4567 45.3028 17.3922 45.3084 17.3129C45.327 17.0363 45.4013 16.7653 45.5295 16.4998C45.6799 16.1863 45.8675 15.8747 46.0905 15.5612L49.659 10.6123H53.8944L48.3772 17.8476L53.9725 25.5328H49.6962L46.0905 20.4087C45.6316 19.7505 45.262 19.142 44.9815 18.5833C44.9406 18.504 44.8421 18.4764 44.766 18.5243L44.7585 18.528C44.6879 18.5723 44.6712 18.6626 44.7121 18.7345C44.8124 18.9042 44.8793 19.0775 44.9164 19.2545C44.9629 19.4757 44.9852 19.8685 44.9852 20.4272V25.531H41.4631V25.5347Z" fill="black"/>
<path d="M61.0947 25.5347H55.1558V10.6123H58.6816V22.4038H61.0928V25.5328L61.0947 25.5347Z" fill="black"/>
<path d="M65.9617 25.5347H62.4359V10.6123H65.9617V25.5347Z" fill="black"/>
<path d="M68.345 25.5347V10.6123H74.0201L76.0301 19.2748C76.1081 19.6011 76.1806 20.0012 76.2475 20.477C76.3051 20.9011 76.3385 21.3288 76.3441 21.7584C76.3441 21.8451 76.4147 21.9152 76.502 21.9152C76.5893 21.9152 76.6599 21.8451 76.6599 21.7584C76.6654 21.3288 76.6989 20.9029 76.7565 20.477C76.8215 20.0012 76.8939 19.6011 76.9738 19.2748L78.9652 10.6123H84.6589V25.5328H81.1331V16.1476C81.1331 15.6516 81.1424 15.2478 81.1628 14.9343C81.1814 14.6522 81.2167 14.2668 81.2724 13.7819C81.2817 13.6952 81.2204 13.616 81.1331 13.6049H81.1294C81.0439 13.5938 80.964 13.6547 80.951 13.7395C80.8006 14.7001 80.6445 15.5041 80.4829 16.1476L78.2166 25.5347H74.7892L72.5229 16.1476C72.3613 15.5041 72.2052 14.702 72.0548 13.7395C72.0418 13.6547 71.9619 13.5938 71.8764 13.6049H71.8727C71.7854 13.616 71.7241 13.6952 71.7334 13.7819C71.7891 14.2668 71.8263 14.6522 71.843 14.9343C71.8634 15.2478 71.8727 15.6516 71.8727 16.1476V25.5347H68.345Z" fill="black"/>
<path d="M89.6429 25.5347H85.8998L91.0418 10.6123H94.8648L100.007 25.5328H96.2636L95.4555 22.8537H90.451L89.6429 25.5328V25.5347ZM91.3761 19.8242H94.5286L93.4846 16.3043C93.2579 15.5446 93.1335 14.8919 93.113 14.348C93.1093 14.2613 93.0406 14.1931 92.9533 14.1931C92.866 14.1931 92.7954 14.2613 92.7935 14.348C92.7731 14.8919 92.6486 15.5446 92.422 16.3043L91.378 19.8242H91.3761Z" fill="black"/>
<path d="M101.864 25.5348V10.6125H107.066C108.55 10.6125 109.717 10.9738 110.564 11.6985C111.411 12.4213 111.834 13.4612 111.834 14.8183C111.834 16.1754 111.411 17.184 110.564 17.9271C109.717 18.6701 108.55 19.0426 107.066 19.0426H105.082C104.056 19.0426 103.224 19.8686 103.224 20.8864V25.5348H101.864ZM106.887 17.868C108.043 17.868 108.933 17.6081 109.557 17.0862C110.181 16.5644 110.493 15.8214 110.493 14.857C110.493 13.8927 110.177 13.1459 109.547 12.6186C108.918 12.0912 108.03 11.8257 106.887 11.8257H103.222V16.0242C103.222 17.042 104.054 17.868 105.08 17.868H106.887Z" fill="black"/>
<path d="M113.094 25.5348V10.6125H118.295C119.779 10.6125 120.946 10.9738 121.793 11.6985C122.64 12.4213 123.064 13.4612 123.064 14.8183C123.064 16.3174 122.492 17.4716 121.349 18.2792C121.243 18.3567 121.089 18.4267 120.887 18.4839C120.682 18.5429 120.489 18.5724 120.305 18.5724C120.246 18.5724 120.196 18.5724 120.153 18.5669C120.088 18.5613 120.026 18.6001 119.999 18.6591C119.963 18.7365 119.995 18.8269 120.071 18.8656C120.129 18.8951 120.192 18.9356 120.227 18.9817C120.305 19.0868 120.391 19.2288 120.483 19.4114L123.203 25.533H121.745L119.586 20.5951C119.174 19.6511 118.236 19.0407 117.201 19.0407H116.313C115.288 19.0407 114.455 19.8668 114.455 20.8846V25.533H113.096L113.094 25.5348ZM118.119 17.868C119.274 17.868 120.164 17.6081 120.788 17.0862C121.412 16.5644 121.724 15.8214 121.724 14.857C121.724 13.8927 121.409 13.1459 120.779 12.6186C120.149 12.0912 119.261 11.8257 118.119 11.8257H114.454V16.0242C114.454 17.042 115.286 17.868 116.311 17.868H118.119Z" fill="black"/>
<path d="M127.201 24.6922C126.175 24.0007 125.408 23.0714 124.895 21.9061C124.383 20.7389 124.126 19.4593 124.126 18.0635C124.126 16.6677 124.383 15.3917 124.895 14.2301C125.408 13.0703 126.175 12.1447 127.201 11.4532C128.226 10.7618 129.48 10.417 130.964 10.417C132.449 10.417 133.702 10.7636 134.728 11.4532C135.753 12.1447 136.521 13.0703 137.033 14.2301C137.546 15.3899 137.802 16.6677 137.802 18.0635C137.802 19.4593 137.546 20.7389 137.033 21.9061C136.521 23.0733 135.753 24.0026 134.728 24.6922C133.702 25.3836 132.449 25.7284 130.964 25.7284C129.48 25.7284 128.226 25.3836 127.201 24.6922ZM133.95 23.6762C134.771 23.1157 135.391 22.3505 135.811 21.3787C136.231 20.407 136.441 19.3026 136.441 18.0635C136.441 16.8244 136.231 15.7199 135.811 14.7482C135.391 13.7765 134.771 13.015 133.95 12.46C133.128 11.9068 132.133 11.6284 130.964 11.6284C129.796 11.6284 128.8 11.905 127.979 12.46C127.158 13.015 126.538 13.7765 126.118 14.7482C125.698 15.7199 125.488 16.8244 125.488 18.0635C125.488 19.3026 125.698 20.407 126.118 21.3787C126.538 22.3505 127.158 23.1157 127.979 23.6762C128.8 24.2367 129.794 24.517 130.964 24.517C132.135 24.517 133.128 24.2367 133.95 23.6762Z" fill="black"/>
<path d="M143.75 25.5348H142.391V13.6696C142.391 12.6518 141.558 11.8257 140.533 11.8257H137.111V10.6125H149.05V11.8257H145.608C144.583 11.8257 143.75 12.6518 143.75 13.6696V25.5348Z" fill="black"/>
<path d="M151.475 24.6922C150.449 24.0007 149.682 23.0714 149.169 21.9061C148.657 20.7389 148.4 19.4593 148.4 18.0635C148.4 16.6677 148.657 15.3917 149.169 14.2301C149.682 13.0703 150.449 12.1447 151.475 11.4532C152.5 10.7618 153.754 10.417 155.238 10.417C156.722 10.417 157.976 10.7636 159.002 11.4532C160.027 12.1447 160.794 13.0703 161.307 14.2301C161.82 15.3899 162.076 16.6677 162.076 18.0635C162.076 19.4593 161.82 20.7389 161.307 21.9061C160.794 23.0733 160.027 24.0026 159.002 24.6922C157.976 25.3836 156.722 25.7284 155.238 25.7284C153.754 25.7284 152.5 25.3836 151.475 24.6922ZM158.222 23.6762C159.043 23.1157 159.663 22.3505 160.083 21.3787C160.503 20.407 160.713 19.3026 160.713 18.0635C160.713 16.8244 160.503 15.7199 160.083 14.7482C159.663 13.7765 159.043 13.015 158.222 12.46C157.4 11.9068 156.405 11.6284 155.236 11.6284C154.068 11.6284 153.072 11.905 152.251 12.46C151.43 13.015 150.81 13.7765 150.39 14.7482C149.97 15.7199 149.76 16.8244 149.76 18.0635C149.76 19.3026 149.97 20.407 150.39 21.3787C150.81 22.3505 151.43 23.1157 152.251 23.6762C153.072 24.2367 154.066 24.517 155.236 24.517C156.407 24.517 157.4 24.2367 158.222 23.6762Z" fill="black"/>
<path d="M166.092 24.683C165.069 23.986 164.305 23.0567 163.807 21.8969C163.308 20.7371 163.059 19.4593 163.059 18.0635C163.059 16.6677 163.308 15.3917 163.807 14.2301C164.307 13.0703 165.069 12.1447 166.092 11.4532C167.118 10.7618 168.372 10.417 169.856 10.417C170.907 10.417 171.842 10.594 172.663 10.9443C173.484 11.2965 174.153 11.7851 174.673 12.4102C175.191 13.0353 175.529 13.7525 175.687 14.562H174.249C174.052 13.6622 173.556 12.9486 172.761 12.4213C171.966 11.8939 170.985 11.6284 169.815 11.6284C168.645 11.6284 167.658 11.905 166.85 12.46C166.042 13.015 165.435 13.7765 165.028 14.7482C164.621 15.7199 164.417 16.8244 164.417 18.0635C164.417 19.3026 164.621 20.4107 165.028 21.388C165.435 22.3652 166.042 23.1323 166.85 23.6854C167.658 24.2404 168.647 24.517 169.815 24.517C170.983 24.517 171.979 24.2367 172.761 23.6762C173.543 23.1157 174.039 22.3265 174.249 21.3105H175.687C175.438 22.6658 174.801 23.7426 173.776 24.5373C172.75 25.332 171.444 25.7303 169.854 25.7303C168.37 25.7303 167.116 25.3818 166.09 24.6848L166.092 24.683Z" fill="black"/>
<path d="M179.588 24.6922C178.565 24.0007 177.796 23.0714 177.283 21.9061C176.77 20.7389 176.514 19.4593 176.514 18.0635C176.514 16.6677 176.77 15.3917 177.283 14.2301C177.796 13.0703 178.563 12.1447 179.588 11.4532C180.614 10.7618 181.867 10.417 183.352 10.417C184.836 10.417 186.09 10.7636 187.115 11.4532C188.139 12.1447 188.908 13.0703 189.421 14.2301C189.933 15.3899 190.19 16.6677 190.19 18.0635C190.19 19.4593 189.933 20.7389 189.421 21.9061C188.908 23.0733 188.141 24.0026 187.115 24.6922C186.09 25.3836 184.836 25.7284 183.352 25.7284C181.867 25.7284 180.614 25.3836 179.588 24.6922ZM186.337 23.6762C187.158 23.1157 187.779 22.3505 188.198 21.3787C188.618 20.407 188.828 19.3026 188.828 18.0635C188.828 16.8244 188.618 15.7199 188.198 14.7482C187.779 13.7765 187.158 13.015 186.337 12.46C185.516 11.9068 184.52 11.6284 183.352 11.6284C182.183 11.6284 181.188 11.905 180.366 12.46C179.545 13.015 178.925 13.7765 178.505 14.7482C178.085 15.7199 177.875 16.8244 177.875 18.0635C177.875 19.3026 178.085 20.407 178.505 21.3787C178.925 22.3505 179.545 23.1157 180.366 23.6762C181.188 24.2367 182.181 24.517 183.352 24.517C184.522 24.517 185.516 24.2367 186.337 23.6762Z" fill="black"/>
<path d="M200 25.5348H191.745V10.6125H193.104V22.4777C193.104 23.4955 193.937 24.3216 194.962 24.3216H200V25.5348Z" fill="black"/>
<ellipse cx="18.1346" cy="18" rx="18.1346" ry="18" fill="black"/>
<path d="M28.8459 18.8343V17.166H23.2477L30.2243 7.09106H6.04489L13.2217 17.166H7.60038V18.8343H13.2217L6.04489 28.9092H12.9907V27.3637H9.13277L14.6848 19.4771L18.2193 24.5182L21.7153 19.4988L27.2519 27.3565H23.4171V28.902H30.2166L23.2477 18.8343H28.8459ZM9.14047 8.63661H27.2519L21.7153 16.5016L18.2193 11.4821L14.6848 16.5232L9.14047 8.63661ZM18.2193 14.2266L20.283 17.1588H16.1402L18.2193 14.2266ZM18.2193 21.7665L16.1402 18.8343H20.283L18.2193 21.7665Z" fill="#00CC33"/>
</svg>
