<svg width="20" height="20" viewBox="0 0 20 20" fill="none" xmlns="http://www.w3.org/2000/svg">
<path d="M17.8401 9.51037L10.4818 2.15203C10.1734 1.8437 9.74843 1.6687 9.30677 1.6687H3.33177C2.4151 1.6687 1.6651 2.4187 1.6651 3.33537V9.31037C1.6651 9.75203 1.8401 10.177 2.15677 10.4854L9.5151 17.8437C10.1651 18.4937 11.2234 18.4937 11.8734 17.8437L17.8484 11.8687C18.4984 11.2187 18.4984 10.1687 17.8401 9.51037ZM5.4151 6.6687C4.72343 6.6687 4.1651 6.11037 4.1651 5.4187C4.1651 4.72703 4.72343 4.1687 5.4151 4.1687C6.10677 4.1687 6.6651 4.72703 6.6651 5.4187C6.6651 6.11037 6.10677 6.6687 5.4151 6.6687Z" fill="#464646"/>
</svg>
