<svg width="16" height="16" viewBox="0 0 16 16" fill="none" xmlns="http://www.w3.org/2000/svg">
<path d="M7.33337 11.9999H8.66671V10.6666H7.33337V11.9999ZM8.00004 1.33325C4.32004 1.33325 1.33337 4.31992 1.33337 7.99992C1.33337 11.6799 4.32004 14.6666 8.00004 14.6666C11.68 14.6666 14.6667 11.6799 14.6667 7.99992C14.6667 4.31992 11.68 1.33325 8.00004 1.33325ZM8.00004 13.3333C5.06004 13.3333 2.66671 10.9399 2.66671 7.99992C2.66671 5.05992 5.06004 2.66659 8.00004 2.66659C10.94 2.66659 13.3334 5.05992 13.3334 7.99992C13.3334 10.9399 10.94 13.3333 8.00004 13.3333ZM8.00004 3.99992C6.52671 3.99992 5.33337 5.19325 5.33337 6.66659H6.66671C6.66671 5.93325 7.26671 5.33325 8.00004 5.33325C8.73337 5.33325 9.33337 5.93325 9.33337 6.66659C9.33337 7.99992 7.33337 7.83325 7.33337 9.99992H8.66671C8.66671 8.49992 10.6667 8.33325 10.6667 6.66659C10.6667 5.19325 9.47337 3.99992 8.00004 3.99992Z" fill="#ffffff"/>
</svg>
