<svg width="21" height="20" viewBox="0 0 21 20" fill="none" xmlns="http://www.w3.org/2000/svg">
<path d="M4.75364 4.16667H9.75364C10.212 4.16667 10.587 3.79167 10.587 3.33333C10.587 2.875 10.212 2.5 9.75364 2.5H4.75364C3.83698 2.5 3.08698 3.25 3.08698 4.16667V15.8333C3.08698 16.75 3.83698 17.5 4.75364 17.5H9.75364C10.212 17.5 10.587 17.125 10.587 16.6667C10.587 16.2083 10.212 15.8333 9.75364 15.8333H4.75364V4.16667Z" fill="#020617"/>
<path d="M17.7953 9.70833L15.4703 7.38333C15.2036 7.11667 14.7536 7.3 14.7536 7.675V9.16667H8.92031C8.46198 9.16667 8.08698 9.54167 8.08698 10C8.08698 10.4583 8.46198 10.8333 8.92031 10.8333H14.7536V12.325C14.7536 12.7 15.2036 12.8833 15.462 12.6167L17.787 10.2917C17.9536 10.1333 17.9536 9.86667 17.7953 9.70833Z" fill="#020617"/>
</svg>
