<svg width="20" height="20" viewBox="0 0 20 20" fill="none" xmlns="http://www.w3.org/2000/svg">
<path d="M14.1308 9.68647H14.1975C14.8725 9.68647 15.2642 8.92814 14.8808 8.37814L10.6475 2.33647C10.3142 1.86147 9.61416 1.86147 9.28083 2.33647L5.08083 8.37814C4.69749 8.92814 5.09749 9.68647 5.77249 9.68647H5.80583L3.38916 13.4031C3.02249 13.9531 3.42249 14.6865 4.08916 14.6865H8.32249V16.3698C8.32249 17.2781 9.06416 18.0198 9.97249 18.0198C10.8808 18.0198 11.6225 17.2781 11.6225 16.3698V14.6865H15.9142C16.5808 14.6865 16.9808 13.9448 16.6058 13.3948L14.1308 9.68647Z" fill="#464646"/>
</svg>
