<svg width="20" height="20" viewBox="0 0 20 20" fill="none" xmlns="http://www.w3.org/2000/svg">
<path d="M10 9.53548C8.48333 8.11882 6.56667 7.12715 4.43333 6.74382C3.425 6.56882 2.5 7.36882 2.5 8.39382V13.5938C2.5 14.9938 3.1 15.7271 3.925 15.8355C6.00833 16.1021 7.9 16.9605 9.45 18.2271C9.74167 18.4688 10.2167 18.4938 10.5083 18.2605C12.0667 16.9855 13.975 16.1105 16.075 15.8438C16.8583 15.7355 17.5 14.9605 17.5 14.1605V8.39382C17.5 7.36882 16.575 6.56882 15.5667 6.74382C13.4333 7.12715 11.5167 8.11882 10 9.53548ZM10 6.57715C11.3833 6.57715 12.5 5.46048 12.5 4.07715C12.5 2.69382 11.3833 1.57715 10 1.57715C8.61667 1.57715 7.5 2.69382 7.5 4.07715C7.5 5.46048 8.61667 6.57715 10 6.57715Z" fill="#464646"/>
</svg>
